
v -15 -15 -15
v -15 +15 -15
v +15 -15 -15
v +15 -15 -15
v -15 +15 -15
v +15 +15 -15

v -15 -15 +15
v +15 -15 +15
v -15 +15 +15
v -15 +15 +15
v +15 -15 +15
v +15 +15 +15

v +15 -15 -15
v +15 +15 -15
v +15 -15 +15
v +15 -15 +15
v +15 +15 -15
v +15 +15 +15

v -15 -15 -15
v -15 -15 +15
v -15 +15 -15
v -15 +15 -15
v -15 -15 +15
v -15 +15 +15

v -15 +15 -15
v -15 +15 +15
v +15 +15 -15
v +15 +15 -15
v -15 +15 +15
v +15 +15 +15

v -15 -15 -15
v +15 -15 -15
v -15 -15 +15
v -15 -15 +15
v +15 -15 -15
v +15 -15 +15

vn 0 0 -1
vn 0 0 -1
vn 0 0 -1
vn 0 0 -1
vn 0 0 -1
vn 0 0 -1

vn 0 0 +1
vn 0 0 +1
vn 0 0 +1
vn 0 0 +1
vn 0 0 +1
vn 0 0 +1

vn +1 0 0
vn +1 0 0
vn +1 0 0
vn +1 0 0
vn +1 0 0
vn +1 0 0

vn -1 0 0
vn -1 0 0
vn -1 0 0
vn -1 0 0
vn -1 0 0
vn -1 0 0

vn 0 +1 0
vn 0 +1 0
vn 0 +1 0
vn 0 +1 0
vn 0 +1 0
vn 0 +1 0

vn 0 -1 0
vn 0 -1 0
vn 0 -1 0
vn 0 -1 0
vn 0 -1 0
vn 0 -1 0

vt 0.0 0.0
vt 1.0 0.0
vt 0.0 1.0

f 1/3/1 2/1/2 3/2/3
f 4/3/4 5/1/5 6/2/6
f 7/3/7 8/1/8 9/2/9
f 10/3/10 11/1/11 12/2/12
f 13/3/13 14/1/14 15/2/15
f 16/3/16 17/1/17 18/2/18
f 19/3/19 20/1/20 21/2/21
f 22/3/22 23/1/23 24/2/24
f 25/3/25 26/1/26 27/2/27
f 28/3/28 29/1/29 30/2/30
f 31/3/31 32/1/32 33/2/33
f 34/3/34 35/1/35 36/2/36

